<?xml version="1.0" standalone="no"?>
<!DOCTYPE svg PUBLIC "-//W3C//DTD SVG 20010904//EN"
 "http://www.w3.org/TR/2001/REC-SVG-20010904/DTD/svg10.dtd">
<svg version="1.0" xmlns="http://www.w3.org/2000/svg"
 width="256.000000pt" height="256.000000pt" viewBox="0 0 256.000000 256.000000"
 preserveAspectRatio="xMidYMid meet">

<g transform="translate(0.000000,256.000000) scale(0.100000,-0.100000)"
fill="#000000" stroke="none">
<path d="M1219 2170 c-25 -24 -30 -37 -27 -67 l3 -38 85 0 85 0 3 34 c9 89
-86 134 -149 71z"/>
<path d="M1100 2014 c-217 -28 -455 -109 -517 -175 -16 -19 -155 -352 -275
-661 -6 -16 -22 -31 -40 -37 -29 -10 -30 -12 -23 -53 17 -105 85 -202 177
-254 50 -27 59 -29 168 -29 106 0 120 2 172 28 77 38 140 110 167 189 27 81
27 93 -8 117 -24 17 -50 74 -155 336 -99 248 -124 320 -116 334 25 48 309 132
508 151 205 20 456 -17 658 -96 84 -33 107 -51 100 -78 -3 -11 -61 -159 -128
-328 -102 -257 -127 -309 -145 -314 -31 -8 -35 -31 -18 -99 27 -103 80 -166
180 -211 84 -39 215 -45 296 -15 103 39 176 121 204 228 20 75 19 82 -8 92
-13 5 -27 15 -33 22 -6 8 -68 159 -139 336 -89 226 -136 329 -154 346 -56 53
-214 115 -381 148 -93 19 -406 34 -490 23z m-386 -565 c63 -156 112 -289 109
-296 -4 -10 -56 -13 -228 -13 -123 0 -226 4 -229 8 -5 9 225 594 231 588 2 -2
55 -131 117 -287z m1374 -10 c62 -154 110 -285 107 -290 -8 -12 -452 -12 -460
1 -8 12 217 570 230 570 6 0 61 -127 123 -281z"/>
<path d="M1201 1906 c-8 -9 -10 -181 -9 -622 l3 -609 73 -3 c46 -2 79 2 88 9
12 10 14 108 14 613 0 455 -3 605 -12 614 -17 17 -142 16 -157 -2z"/>
<path d="M938 615 c-79 -25 -127 -87 -143 -183 -12 -76 -40 -72 485 -72 536 0
502 -6 482 87 -15 74 -45 118 -100 151 l-47 27 -315 2 c-254 2 -324 -1 -362
-12z"/>
</g>
</svg>
